<svg xmlns="http://www.w3.org/2000/svg" width="1024" height="1536" viewBox="0 0 1024 1536" version="1.1">
	<path d="M 644.075 367.332 C 644.391 367.691, 646.416 368.669, 648.575 369.507 C 650.734 370.345, 651.375 370.827, 650 370.579 C 647.905 370.200, 647.219 370.732, 645.766 373.857 C 644.813 375.909, 643.729 379.105, 643.358 380.961 C 642.787 383.817, 642.933 384.240, 644.309 383.712 C 645.204 383.368, 646.202 383.518, 646.527 384.044 C 646.852 384.570, 646.615 385, 646 385 C 645.385 385, 645.172 385.470, 645.527 386.044 C 645.882 386.618, 645.571 387.829, 644.836 388.736 C 643.709 390.126, 643.720 390.251, 644.905 389.537 C 645.894 388.941, 646.082 389.058, 645.542 389.933 C 645.120 390.616, 643.925 390.952, 642.887 390.681 C 641.027 390.194, 640.149 391.519, 641.901 392.167 C 642.397 392.350, 642.172 393.080, 641.401 393.789 C 640.242 394.856, 640 394.775, 640 393.317 C 640 391.914, 639.655 392.059, 638.308 394.027 C 637.377 395.387, 636.282 396.733, 635.875 397.018 C 635.467 397.302, 633.589 400.100, 631.701 403.235 C 629.814 406.371, 627.983 408.650, 627.634 408.301 C 627.100 407.767, 626.817 409.397, 627.066 411.576 C 627.102 411.892, 626.202 412.958, 625.066 413.943 C 623.930 414.928, 623 416.064, 623 416.466 C 623 416.868, 621.650 418.459, 620 420 C 618.350 421.541, 617 423.323, 617 423.960 C 617 424.597, 616.550 424.840, 616 424.500 C 615.450 424.160, 614.955 424.921, 614.901 426.191 C 614.705 430.755, 614.300 434.030, 613.904 434.263 C 613.682 434.393, 612.190 435.625, 610.589 437 C 608.988 438.375, 608.045 438.868, 608.493 438.095 C 609.042 437.150, 608.931 436.924, 608.155 437.405 C 607.520 437.797, 607 438.793, 607 439.618 C 607 440.443, 606.635 440.892, 606.189 440.617 C 604.971 439.864, 594.627 451.072, 593.070 454.831 C 592.222 456.879, 591.206 457.909, 590.357 457.584 C 589.611 457.297, 589 457.499, 589 458.031 C 589 458.564, 588.100 459, 587 459 C 585.900 459, 585 459.454, 585 460.010 C 585 461.616, 578.988 460.408, 573 457.600 C 567.382 454.964, 561 454.149, 561 456.067 C 561 456.703, 560.091 456.868, 558.750 456.474 C 557.513 456.111, 560.491 457.877, 565.368 460.399 C 605.032 480.912, 624.626 518.675, 617.553 560.975 C 615.236 574.831, 611.341 586.164, 601.985 606.276 L 594.181 623.052 597.840 624.913 C 605.140 628.626, 622.900 634.034, 632.588 635.494 C 643.193 637.093, 654.700 637.326, 662 636.090 C 666.814 635.275, 666.825 635.287, 657.775 631.972 C 650.015 629.130, 641.066 622.337, 637.259 616.399 C 627.162 600.654, 633.163 578.874, 650.196 569.438 C 655.073 566.737, 656.306 566.500, 665.500 566.500 C 674.716 566.500, 675.920 566.733, 680.855 569.466 C 692.285 575.797, 698.591 587.537, 697.827 601.062 C 697.612 604.858, 697.001 608.401, 696.468 608.936 C 695.844 609.564, 695.619 607.627, 695.834 603.478 C 696.107 598.223, 695.696 596.016, 693.584 591.402 C 691.389 586.608, 690.773 585.944, 689.499 587 C 688.675 587.685, 688 588.830, 688 589.545 C 688 591.432, 678.283 599.441, 672.478 602.339 C 669.740 603.705, 662.371 606.083, 656.102 607.621 C 647.401 609.757, 644.591 610.847, 644.231 612.226 C 643.742 614.093, 641.057 614.258, 639.765 612.500 C 638.086 610.214, 639.159 613.721, 641.266 617.405 C 644.434 622.943, 649.559 626.671, 656.460 628.457 C 664.205 630.462, 667.090 630.403, 675.507 628.069 C 679.337 627.007, 682.599 626.266, 682.756 626.423 C 682.913 626.579, 681.232 627.905, 679.020 629.368 C 676.809 630.831, 675 632.424, 675 632.908 C 675 635.116, 690.562 629.567, 702.637 623.054 C 725.658 610.637, 743.593 591.324, 756.002 565.588 C 768.205 540.281, 773.726 503.494, 774.701 440.984 L 775.256 405.468 760.878 402.170 C 739.423 397.248, 710.088 388.923, 682.647 379.968 C 668.701 375.416, 657.402 372.246, 656.348 372.588 C 655.100 372.994, 654.904 372.897, 655.743 372.289 C 656.604 371.667, 655.372 370.819, 651.743 369.536 C 643.832 366.738, 643.455 366.630, 644.075 367.332 M 624.015 420.250 C 624.028 422.069, 624.216 422.213, 625 421 C 626.253 419.061, 626.253 418, 625 418 C 624.450 418, 624.007 419.012, 624.015 420.250 M 482.698 510.387 C 473.772 513.705, 466.439 521.471, 463.764 530.441 C 461.955 536.503, 462.219 547.653, 464.322 554 C 470.005 571.159, 487.780 590.927, 508.767 603.428 L 518.295 609.102 524.397 605.369 C 546.476 591.860, 564.985 572.346, 571.022 556.212 C 576.223 542.310, 574.021 528.561, 565.014 518.705 C 557.940 510.966, 552.273 508.706, 541.097 509.168 C 531.821 509.552, 525.221 512.007, 520.792 516.722 C 518.706 518.941, 519.028 518.882, 525.509 515.849 C 534.116 511.821, 542.076 510.994, 548.524 513.456 C 550.974 514.392, 553.224 515.553, 553.522 516.036 C 554.281 517.263, 548.636 520.011, 544.198 520.575 C 538.944 521.242, 528.753 524.115, 527.114 525.391 C 525.006 527.033, 512.192 526.628, 506 524.726 C 502.975 523.796, 498.700 522.771, 496.500 522.449 C 494.300 522.127, 490.700 521.403, 488.500 520.841 C 486.300 520.279, 483.070 519.748, 481.322 519.660 C 478.430 519.514, 478.280 519.351, 479.644 517.842 C 480.468 516.931, 483.439 515.197, 486.246 513.989 C 493.483 510.876, 502.239 511.525, 510.920 515.818 C 514.451 517.564, 517.518 518.815, 517.736 518.598 C 518.278 518.056, 512.273 513.635, 508 511.430 C 503.338 509.024, 488.060 508.394, 482.698 510.387 M 418.985 518.583 C 418.974 519.973, 418.743 520.143, 418.146 519.203 C 417.494 518.174, 417.042 518.245, 415.964 519.543 C 414.709 521.056, 414.508 521.048, 413.334 519.442 C 412.166 517.845, 411.982 517.916, 411.070 520.316 C 409.995 523.144, 407.551 531.797, 406.558 536.291 C 406.200 537.913, 405.495 538.806, 404.876 538.423 C 404.289 538.061, 402.498 538.735, 400.894 539.920 L 397.978 542.076 391.239 537.991 C 383.881 533.531, 373.780 526.631, 367.500 521.776 C 365.300 520.075, 364.063 519.294, 364.750 520.041 C 366.543 521.990, 366.295 523, 364.023 523 C 362.936 523, 361.314 524.117, 360.420 525.481 C 359.526 526.846, 357.378 528.381, 355.647 528.893 C 353.916 529.404, 349.602 530.987, 346.060 532.411 C 342.519 533.835, 338.774 535, 337.739 535 C 335.636 535, 332.754 537.421, 333.714 538.381 C 334.055 538.721, 333.808 539, 333.167 539 C 331.190 539, 330.563 539.163, 328.687 540.167 C 327.691 540.701, 325.553 541.175, 323.937 541.221 C 322.322 541.267, 321 541.686, 321 542.152 C 321 543.479, 318.225 543.145, 317.662 541.750 C 317.259 540.750, 317.142 540.750, 317.079 541.750 C 317.036 542.438, 316.502 543, 315.893 543 C 315.284 543, 315.005 542.429, 315.273 541.730 C 315.651 540.745, 313.608 540.537, 306.130 540.802 C 300.834 540.989, 296.350 541.560, 296.167 542.071 C 295.983 542.582, 293.336 543, 290.283 543 C 287.230 543, 282.912 543.545, 280.687 544.212 C 277.511 545.164, 276.554 545.162, 276.235 544.206 C 276.012 543.536, 275.418 543.242, 274.915 543.553 C 274.412 543.864, 274 543.136, 274 541.937 C 274 540.208, 273.717 539.990, 272.637 540.886 C 271.532 541.803, 271.346 541.496, 271.656 539.259 C 272.021 536.623, 271.987 536.598, 270.886 538.705 C 269.962 540.474, 270.274 543.342, 272.464 553.205 C 275.904 568.698, 277.064 572.170, 282.922 584.500 C 293.320 606.386, 308.281 621.097, 332.500 633.247 C 342.090 638.058, 356.395 643, 360.729 643 C 362.962 643, 362.169 642.121, 355.427 637.121 C 342.188 627.302, 337.516 619.419, 337.579 607 C 337.629 597.204, 340.461 589.916, 346.772 583.340 C 354.111 575.694, 359.513 573.500, 371 573.500 C 378.889 573.500, 381.291 573.889, 385.162 575.797 C 392.172 579.250, 398.220 585.106, 401.530 591.644 C 404.125 596.769, 404.495 598.563, 404.497 606.018 C 404.500 613.631, 404.151 615.246, 401.208 621.226 C 397.184 629.403, 392.288 633.804, 381.250 639.165 C 376.712 641.368, 373 643.583, 373 644.086 C 373 645.901, 397.687 645.102, 408.277 642.944 C 419.692 640.617, 441.230 632.664, 444.859 629.435 C 445.057 629.259, 444.242 627.744, 443.049 626.069 C 440.349 622.278, 430.505 601.525, 425.676 589.446 C 423.685 584.466, 420.819 575.466, 419.309 569.446 C 416.950 560.047, 416.566 556.521, 416.596 544.500 C 416.621 534.390, 417.115 528.733, 418.372 524.139 C 419.329 520.641, 419.862 517.529, 419.556 517.223 C 419.250 516.917, 418.993 517.529, 418.985 518.583 M 268.079 530.583 C 268.127 531.748, 268.364 531.985, 268.683 531.188 C 268.972 530.466, 268.936 529.603, 268.604 529.271 C 268.272 528.939, 268.036 529.529, 268.079 530.583 M 269.195 535.500 C 269.215 537.150, 269.439 537.704, 269.693 536.731 C 269.947 535.758, 269.930 534.408, 269.656 533.731 C 269.382 533.054, 269.175 533.850, 269.195 535.500 M 753.975 591.308 C 743.094 609.578, 718.179 631.599, 699.323 639.613 C 695.044 641.431, 693.349 642.600, 694.211 643.139 C 695.181 643.745, 694.937 644.340, 693.222 645.548 C 691.969 646.431, 690.167 648.806, 689.217 650.826 C 687.675 654.104, 686.574 654.839, 678.995 657.650 C 674.323 659.382, 670.050 661.194, 669.500 661.675 C 668.168 662.841, 657.874 665.843, 653 666.487 C 649.373 666.967, 639.346 669.402, 637.772 670.186 C 635.638 671.249, 625.462 666.310, 612.409 657.875 C 607.409 654.644, 602.874 652, 602.333 652 C 601.792 652, 600.270 650.852, 598.952 649.448 C 597.076 647.452, 595.842 646.993, 593.277 647.339 C 591.475 647.581, 590 647.353, 590 646.831 C 590 646.309, 589.609 646.124, 589.131 646.419 C 588.020 647.106, 576.699 635.297, 577.392 634.174 C 577.678 633.712, 577.280 633.333, 576.507 633.333 C 574.255 633.333, 577.596 637.301, 590.163 649.551 C 608.645 667.567, 617.659 674.019, 640.500 685.582 L 656.500 693.682 656.785 704.490 C 657.271 722.876, 652.146 741.679, 639.614 767.500 C 622.972 801.789, 600.376 831.908, 572.102 857.491 C 560.531 867.960, 558.478 870.020, 561.250 868.378 C 576.288 859.470, 601.744 840.652, 617.703 826.644 C 677.587 774.084, 722.881 704.056, 748.774 624 C 753.514 609.345, 760.449 583.116, 759.765 582.432 C 759.591 582.258, 756.986 586.252, 753.975 591.308 M 638.079 609.583 C 638.127 610.748, 638.364 610.985, 638.683 610.188 C 638.972 609.466, 638.936 608.603, 638.604 608.271 C 638.272 607.939, 638.036 608.529, 638.079 609.583 M 394.188 626.960 C 392.985 628.587, 392 630.250, 392 630.654 C 392 631.058, 393.125 629.864, 394.500 628 C 395.875 626.136, 397 624.474, 397 624.306 C 397 623.489, 396.187 624.256, 394.188 626.960 M 387.102 633.586 C 385.233 634.914, 384.196 636, 384.796 636 C 385.397 636, 387.151 634.889, 388.694 633.532 C 392.228 630.423, 391.520 630.447, 387.102 633.586 M 579 634.662 C 579 635.538, 579.718 636.008, 580.750 635.810 C 581.712 635.624, 582.500 635.072, 582.500 634.582 C 582.500 634.092, 581.712 633.575, 580.750 633.434 C 579.754 633.288, 579 633.816, 579 634.662 M 369.750 638.662 C 370.438 638.940, 371.563 638.940, 372.250 638.662 C 372.938 638.385, 372.375 638.158, 371 638.158 C 369.625 638.158, 369.063 638.385, 369.750 638.662 M 571.249 663.476 C 565.136 673.732, 549.979 697.079, 542.345 708 C 540.230 711.025, 534.266 719.575, 529.092 727 C 523.917 734.425, 519.355 740.877, 518.954 741.338 C 517.391 743.133, 478.852 688.554, 464.673 664.466 L 461.846 659.663 453.173 668.636 C 439.476 682.807, 424.950 693.778, 407.641 703.027 L 397.948 708.206 398.579 711.568 C 399.749 717.804, 422.819 738.826, 444 752.958 C 468.059 769.010, 493.896 781.550, 513.240 786.562 C 518.915 788.033, 519.484 788.002, 525.841 785.895 C 538.190 781.802, 557.801 773.254, 569.186 767.001 C 597.009 751.723, 616.685 736.528, 636.835 714.760 C 642.777 708.341, 644 706.444, 644 703.646 C 644 700.374, 643.713 700.133, 634.549 695.703 C 617.722 687.567, 602.464 676.623, 586.782 661.441 C 581.986 656.798, 577.935 653, 577.778 653 C 577.622 653, 574.683 657.714, 571.249 663.476 M 446.703 688.983 C 434.354 698.743, 422.605 706.296, 411.420 711.666 L 401.827 716.272 408.116 722.617 C 411.575 726.107, 414.651 728.632, 414.953 728.228 C 415.254 727.823, 416.850 727.345, 418.500 727.165 C 421.762 726.809, 431.090 720.968, 430.342 719.750 C 430.089 719.337, 430.379 719, 430.986 719 C 431.594 719, 433.161 717.987, 434.469 716.750 C 435.777 715.513, 438.373 713.285, 440.239 711.799 C 442.105 710.314, 444.502 707.389, 445.566 705.299 C 446.630 703.210, 447.747 701.275, 448.048 701 C 451.586 697.773, 454.149 690.016, 451.688 689.985 C 450.940 689.975, 450.871 689.697, 451.500 689.235 C 452.050 688.831, 453.021 687.600, 453.657 686.500 C 454.293 685.400, 455.306 684.612, 455.907 684.750 C 456.508 684.888, 457 684.325, 457 683.500 C 457 682.675, 456.663 682.007, 456.250 682.015 C 455.837 682.024, 451.541 685.159, 446.703 688.983 M 384.286 713.500 C 384.294 716.250, 384.488 717.256, 384.718 715.736 C 384.947 714.216, 384.941 711.966, 384.704 710.736 C 384.467 709.506, 384.279 710.750, 384.286 713.500 M 385.195 724.500 C 385.215 726.150, 385.439 726.704, 385.693 725.731 C 385.947 724.758, 385.930 723.408, 385.656 722.731 C 385.382 722.054, 385.175 722.850, 385.195 724.500 M 628.629 733.624 C 617.688 744.139, 616.735 745.351, 616.456 749.096 C 615.968 755.633, 607.488 771.649, 592.931 793.528 C 578.332 815.468, 566.948 828.369, 558 833.114 C 555.525 834.426, 553.275 835.760, 553 836.078 C 552.023 837.206, 529.416 847.715, 524.385 849.379 L 519.270 851.071 518.644 856.285 C 518.299 859.153, 518.013 862.989, 518.009 864.809 C 518.004 866.629, 517.602 867.872, 517.115 867.571 C 515.724 866.711, 509.682 869.131, 507.750 871.322 C 506.788 872.413, 506 872.957, 506 872.531 C 506 872.104, 505.407 872.247, 504.682 872.849 C 503.706 873.659, 502.732 873.508, 500.932 872.269 C 498.626 870.682, 498.573 870.686, 499.918 872.352 C 501.717 874.582, 505.615 876.804, 504.466 874.945 C 503.960 874.126, 504.097 873.942, 504.862 874.415 C 505.506 874.813, 505.804 875.509, 505.524 875.962 C 504.687 877.315, 518.750 888.268, 520.212 887.402 C 520.920 886.983, 528.250 881.149, 536.500 874.438 C 584.916 835.054, 620.041 786.209, 637.044 734.623 C 639.213 728.041, 640.878 722.556, 640.744 722.435 C 640.610 722.314, 635.158 727.349, 628.629 733.624 M 386.061 729.250 C 386.027 730.212, 385.531 731, 384.958 731 C 384.385 731, 382.950 731.900, 381.770 733 C 380.589 734.100, 378.972 735, 378.176 735 C 375.924 735, 377.381 742.694, 381.613 753.144 C 383.606 758.068, 385.071 762.202, 384.868 762.331 C 384.666 762.461, 383.278 763.182, 381.784 763.934 C 380.290 764.686, 379.311 765.695, 379.608 766.175 C 379.906 766.656, 379.778 766.985, 379.324 766.906 C 378.871 766.828, 378.275 766.851, 378 766.958 C 376.103 767.698, 374.085 767.671, 374.554 766.912 C 374.864 766.410, 375.766 766, 376.559 766 C 377.352 766, 378 765.534, 378 764.965 C 378 764.264, 377.397 764.252, 376.131 764.930 C 375.104 765.480, 373.979 765.645, 373.631 765.298 C 373.284 764.951, 373 765.079, 373 765.583 C 373 766.087, 371.312 766.490, 369.250 766.478 C 367.187 766.465, 365.010 766.798, 364.411 767.216 C 363.755 767.675, 362.053 766.209, 360.126 763.526 C 358.368 761.077, 356.406 758.751, 355.766 758.356 C 351.424 755.672, 380.531 790.290, 394.706 804.667 C 421.061 831.399, 443.983 849.283, 478.500 870.044 C 481.018 871.559, 475.600 865.607, 463.871 853.975 C 453.625 843.814, 441.567 830.839, 437.076 825.142 C 414.427 796.415, 395.024 760.664, 388.117 734.933 C 387.019 730.845, 386.094 728.288, 386.061 729.250 M 352 754.378 C 352 754.585, 352.788 755.373, 353.750 756.128 C 355.336 757.371, 355.371 757.336, 354.128 755.750 C 352.821 754.084, 352 753.555, 352 754.378 M 639.445 971.068 C 629.372 973.996, 628.046 989.614, 637.534 993.579 C 644.718 996.580, 654.108 994.537, 657.597 989.212 C 659.751 985.924, 659.718 979.025, 657.532 975.690 C 654.520 971.092, 646.455 969.031, 639.445 971.068 M 396.860 974.568 C 390.846 976.420, 382.738 983.699, 380.518 989.242 C 379.579 991.584, 378.564 996.763, 378.262 1000.750 L 377.711 1008 370.856 1008 L 364 1008 364 1017 L 364 1026 371 1026 L 378 1026 378 1057 L 378 1088 390.500 1088 L 403 1088 403 1057 L 403 1026 413.750 1026 L 424.500 1026.001 424.336 1017.250 L 424.173 1008.500 412.953 1008.216 L 401.733 1007.932 402.387 1002.361 C 402.748 999.297, 403.510 995.915, 404.082 994.847 C 406.155 990.974, 414.218 989.811, 420.576 992.467 C 423.260 993.589, 424.193 993.648, 424.533 992.717 C 426.998 985.979, 429 979.371, 429 977.975 C 429 973.781, 406.995 971.448, 396.860 974.568 M 785 1031 L 785 1088 796.500 1088 L 808 1088 808 1076.621 L 808 1065.243 813.594 1060.464 C 816.857 1057.676, 819.461 1056.114, 819.844 1056.714 C 820.205 1057.280, 825.638 1064.550, 831.917 1072.871 L 843.334 1088 856.704 1088 L 870.073 1088 860.787 1075.934 C 855.679 1069.297, 847.811 1059.060, 843.301 1053.184 L 835.103 1042.500 841.294 1036 C 844.700 1032.425, 852.432 1024.438, 858.477 1018.250 L 869.467 1007 855.836 1007 L 842.206 1007 825.103 1023.603 L 808 1040.206 808 1007.103 L 808 974 796.500 974 L 785 974 785 1031 M 202.107 976.102 C 177.171 979.899, 163.376 993.748, 165.237 1013.115 C 166.709 1028.435, 178.517 1036.482, 209.629 1043.372 C 225.994 1046.995, 231.528 1050.316, 232.642 1057.181 C 233.428 1062.024, 229.538 1066.466, 222.743 1068.484 C 209.923 1072.291, 186.151 1068.342, 174.566 1060.481 L 170.983 1058.049 166.623 1067.274 C 161.597 1077.909, 161.372 1077.259, 171.776 1082.220 C 182.110 1087.148, 191.096 1089.107, 206 1089.681 C 216.213 1090.074, 221.112 1089.822, 226.122 1088.645 C 245.966 1083.980, 256.909 1073.345, 257.823 1057.834 C 258.590 1044.829, 253.082 1036.220, 240.084 1030.102 C 236.554 1028.441, 226.654 1025.428, 218.084 1023.406 C 195.519 1018.081, 191 1015.541, 191 1008.182 C 191 1001.109, 197.079 996.731, 208.605 995.505 C 218.141 994.490, 230.329 997.234, 244.631 1003.618 C 245.296 1003.915, 247.001 1001.110, 248.769 996.811 C 253.840 984.481, 253.899 985.301, 247.734 982.479 C 235.382 976.824, 215.560 974.053, 202.107 976.102 M 538 1033 L 538 1088 579 1088 L 620 1088 620 1078 L 620 1068 591.500 1068 L 563 1068 563 1023 L 563 978 550.500 978 L 538 978 538 1033 M 294.500 1006.382 C 287.820 1007.703, 277.440 1011.398, 274.746 1013.414 C 273.116 1014.633, 273.320 1015.302, 277.626 1022.903 C 280.174 1027.401, 282.538 1030.928, 282.879 1030.742 C 297.411 1022.824, 309.660 1021.215, 318.977 1026 C 322.798 1027.963, 325.386 1031.708, 326.309 1036.613 L 326.895 1039.726 310.198 1040.246 C 295.586 1040.701, 292.643 1041.082, 286.644 1043.297 C 275.358 1047.464, 270.065 1054.354, 270.022 1064.934 C 269.978 1075.694, 277.058 1084.393, 288.814 1088.024 C 301.715 1092.009, 315.854 1089.741, 324.002 1082.379 C 326.059 1080.521, 328.025 1079, 328.371 1079 C 328.717 1079, 329 1081.025, 329 1083.500 L 329 1088 340.056 1088 L 351.111 1088 350.806 1058.750 C 350.512 1030.675, 350.408 1029.299, 348.199 1024.500 C 343.967 1015.306, 336.479 1009.662, 324.307 1006.492 C 317.575 1004.738, 303.084 1004.685, 294.500 1006.382 M 463.335 1006.423 C 436.776 1012.864, 423.086 1040.850, 434.403 1065.569 C 439.276 1076.213, 451.409 1085.234, 465.240 1088.494 C 477.743 1091.442, 493.724 1089.800, 503.769 1084.535 C 508.648 1081.977, 514 1077.683, 514 1076.325 C 514 1075.901, 511.230 1072.759, 507.845 1069.344 L 501.691 1063.134 498.595 1065.464 C 488.076 1073.383, 468.610 1072.512, 460.319 1063.752 C 457.126 1060.379, 455 1056.907, 455 1055.066 C 455 1054.334, 465.058 1054, 487.139 1054 L 519.277 1054 518.750 1045.250 C 517.767 1028.921, 511.219 1017.744, 498.654 1010.943 C 487.978 1005.165, 475.243 1003.535, 463.335 1006.423 M 719.500 1005.897 C 714 1007.371, 709.390 1009.719, 705.795 1012.875 C 703.838 1014.594, 701.958 1016, 701.618 1016 C 701.278 1016, 701 1013.975, 701 1011.500 L 701 1007 690 1007 L 679 1007 679 1047.500 L 679 1088 690.500 1088 L 702 1088 702 1066.182 C 702 1041.287, 702.922 1036.144, 708.363 1030.704 C 715.651 1023.416, 729.399 1023.122, 735.611 1030.121 C 739.509 1034.512, 740 1038.262, 740 1063.649 L 740 1088 752.080 1088 L 764.161 1088 763.796 1059.250 C 763.461 1032.810, 763.263 1030.080, 761.323 1025.279 C 758.076 1017.240, 753.742 1012.491, 746.320 1008.837 C 740.685 1006.063, 738.530 1005.568, 731.127 1005.348 C 726.382 1005.208, 721.150 1005.454, 719.500 1005.897 M 639.500 1006.734 L 633.500 1007.082 633.772 1047.541 L 634.044 1088 645.522 1088 L 657 1088 657 1047.625 L 657 1007.250 653.875 1006.625 C 652.156 1006.281, 649.569 1006.087, 648.125 1006.193 C 646.681 1006.299, 642.800 1006.542, 639.500 1006.734 M 467.030 1024.113 C 462.203 1026.039, 458.163 1030.005, 456.445 1034.505 C 455.491 1037.002, 454.936 1039.269, 455.210 1039.543 C 455.484 1039.817, 464.957 1039.920, 476.262 1039.771 L 496.815 1039.500 495.493 1035.655 C 492.713 1027.575, 485.464 1023.017, 475.500 1023.085 C 472.200 1023.108, 468.388 1023.570, 467.030 1024.113 M 298.775 1055.559 C 295.371 1057.406, 294 1059.905, 294 1064.260 C 294 1072.751, 307.072 1076.779, 317.554 1071.517 C 323.740 1068.412, 327 1063.812, 327 1058.188 L 327 1054 314.250 1054.040 C 304.956 1054.069, 300.761 1054.481, 298.775 1055.559" stroke="none" fill="#d33636" fill-rule="evenodd"/>
</svg>
